<svg width="446" height="146" viewBox="0 0 446 146" fill="none" xmlns="http://www.w3.org/2000/svg">
<path d="M171.655 127.36C155.082 116.672 132.592 114.797 96.3199 124.871C57.652 133.968 44.7596 139.8 27.8282 128.093C21.3235 122.343 18.9914 113.083 20.7328 99.746C24.7718 78.0038 35.6868 57.0803 55.0744 33.8711C65.8965 21.7978 75.9346 11.4367 89.19 7.27605C99.349 4.66598 98.3993 12.6589 97.17 13.8021C95.8729 13.8021 93.6939 14.0066 92.0098 15.1068C90.6431 16.168 86.8914 19.5946 86.6898 24.2039C86.3992 31.26 93.6933 29.7913 96.8393 25.9172C100.23 21.5515 105.242 13.1912 101.3 5.39945C99.6474 2.62608 96.7926 0.709351 93.248 0.0566939C81.1104 -0.637765 69.8063 5.15478 59.374 11.5587C36.5586 27.4259 18.3077 49.4123 7.98065 73.4787C2.02656 87.9993 -3.358 108.8 4.71328 125.729C10.9569 137.476 23.9195 143.715 39.3845 142.411C50.231 141.27 63.3467 137.76 72.1679 135.641C80.989 133.519 126.144 117.979 140.98 145.025C140.98 145.025 145.914 135.437 158.244 135.232C168.38 134.296 183.003 138.17 193.653 146C190.105 140.658 180.046 132.786 171.655 127.36Z" fill="#EA4A3C"/>
<path d="M100.925 36.6044C92.4792 31.0571 75.5049 41.6623 61.9094 59.8537C49.4768 76.1712 44.1083 95.1362 49.9505 103.906C58.6414 114.225 74.7751 99.2154 81.6361 91.1812L82.5212 90.2421C87.1871 85.2248 90.7918 79.1876 94.2808 73.3951C94.2808 73.3951 97.4875 68.0924 97.6406 67.8472C99.6225 67.4816 102.01 66.9103 104.7 66.135C104.661 66.2565 94.4077 83.511 95.4538 92.0752C95.7795 94.6881 95.5306 104.233 104.839 107.128C117.245 109.21 127.151 99.5822 135.89 91.0163C135.89 91.0163 137.38 89.59 138.222 88.7757C138.009 89.6301 137.731 90.7699 137.731 90.7699C134.099 103.415 138.995 106.068 142.057 107.047C151.313 109.741 162.369 96.2793 162.405 96.2793C162.118 100.52 161.28 104.028 165.745 106.842C169.959 108.353 174.224 106.05 177.466 103.888C189.143 95.649 198.551 82.7536 206.149 71.6065H201.302C201.245 71.6065 189.342 88.8777 181.613 92.6315C181.601 92.6315 180.195 93.3543 179.384 92.7825C178.381 91.9253 178.777 90.144 179.397 88.8822C179.436 88.7997 209.238 37.0508 209.238 37.0508H195.167C195.167 37.0508 193.63 39.5405 193.504 39.7038C193.41 39.6224 193.184 39.1944 193.028 38.9893C184.31 26.916 164.567 45.4869 149.703 67.0229C143.981 75.304 136.695 84.6279 129.14 91.3579C129.14 91.3579 117.948 101.629 113.166 94.2495C111.418 91.1489 111.956 86.616 112.942 83.6392C118.51 67.772 128.104 53.3717 139.021 44.6826C142.103 42.2777 145.453 41.5821 147.115 42.602C148.699 43.5417 148.954 45.8648 147.952 47.456C145.41 47.3746 143.373 48.1482 141.716 49.8615C138.454 53.2881 137.321 56.5926 138.358 59.6932C143.397 66.8718 153.446 52.6767 152.96 44.0294C152.786 40.9289 151.134 37.9927 148.668 36.5637C144.993 34.3622 139.387 34.9323 135.759 36.6874C130.902 38.5222 123.214 44.9256 118.726 49.9028C113.077 56.1445 103.388 63.078 100.357 62.3016C101.35 59.6491 109.534 42.8852 100.925 36.6044ZM168.767 61.4042C171.504 57.6115 179.471 47.4543 181.414 45.7416C187.946 39.9881 190.557 42.5195 190.783 44.3131C184.687 55.2444 177.491 67.7675 170.726 79.026C170.74 78.9859 168.609 82.248 168.609 82.248C165.621 86.8155 162.612 90.7315 157.705 93.4641C157.005 93.6693 155.851 93.7512 155.084 93.1782C154.16 92.5663 153.795 91.5463 153.899 90.4851C154.193 86.9783 157.76 76.2526 168.767 61.4042ZM92.2154 67.9709C92.2154 67.9709 92.0929 68.3394 92.0322 68.4597C92.0166 68.4597 85.8972 78.4519 85.8972 78.4519C82.2039 83.3884 77.5926 89.59 71.8284 92.5663C70.1198 93.1375 67.7582 93.5054 66.5546 91.9972C64.0032 88.9373 65.3181 84.6954 66.3865 81.2693L66.7645 80.0454C69.8275 71.7253 74.6877 64.3816 79.4181 57.5697C79.4771 57.5295 79.6096 57.4889 79.6575 57.4889C79.6686 57.5295 79.6876 57.5295 79.6959 57.6115C82.6643 63.321 88.2304 65.9712 92.393 67.1968C92.418 67.1968 92.4447 67.2375 92.4447 67.3194C92.4453 67.4409 92.3774 67.6053 92.2154 67.9709ZM98.013 56.1841C97.9863 56.2655 95.2873 62.4649 95.2873 62.4649C94.8971 62.7909 94.2802 62.6282 93.5732 62.4649L92.3618 62.2598C88.5577 61.0776 85.6884 58.5484 84.8038 55.5303C83.5835 49.6564 88.5956 45.0471 90.8041 43.3756C92.9229 41.9059 96.217 41.1312 98.1299 42.641C99.3096 44.0283 99.7566 45.8224 99.7566 47.7815C99.7572 50.4322 98.9399 53.4096 98.013 56.1841Z" fill="#EA4A3C"/>
<path d="M275.906 75.1071C274.55 72.171 271.328 70.2944 267.896 70.4978C256.749 71.5183 245.845 80.6956 240.121 93.8697C237.116 100.642 235.477 106.229 234.402 115.121C237.868 111.125 244.938 104.558 252.962 100.968C252.962 100.968 254.053 92.4435 259.621 84.8563C261.727 81.7145 265.943 76.6571 270.677 78.0025C274.813 79.3903 273.359 90.8522 267.862 101.945C263.795 110.104 257.571 118.264 251.273 123.891C245.705 128.623 237.468 134.333 230.26 129.929C225.721 127.238 223.406 121.607 223.895 114.347C226.064 93.7488 235.43 76.209 248.833 56.2224C262.653 37.6632 277.887 18.6146 298.409 8.45636C302.595 6.33564 306.471 5.84628 309.822 7.1516C309.822 7.1516 290.557 17.7569 281.374 37.3773C279.038 42.3544 275.789 49.0827 279.061 55.0386C280.771 58.138 283.807 58.3832 286.251 58.2199C297.507 55.6087 304.779 45.0854 310.721 35.46C314.166 28.1587 317.228 20.8981 317.228 12.8215C317.228 11.8428 317.177 10.5381 317.094 9.55824C322.472 6.70405 333.5 11.7609 333.5 11.7609C342.117 14.6173 360.466 28.6904 366.656 31.3813C369.675 27.8739 374.636 22.5718 377.43 19.9199L373.386 17.4314C366.911 13.4747 360.067 9.72154 353.331 6.01015C338.033 -2.35067 325.581 0.585455 319.243 2.87003C316.753 3.76681 314.476 4.54209 314.476 4.54209C309.773 -0.597242 302.06 -0.109003 296.376 1.2788C275.937 7.15216 256.96 21.4688 236.615 46.3105C221.657 65.7676 212.379 82.5733 207.433 99.174C203.622 110.349 202.463 126.788 211.767 136.537C219.677 144.815 230.166 143.022 237.574 140.045C253.622 132.132 268.046 115.081 275.233 95.461C276.967 89.6288 278.892 81.3895 275.906 75.1071ZM312.809 13.638C310.684 38.0305 291.745 52.3488 287.06 53.4891C284.22 54.0593 279.374 52.7958 283.7 42.5589C290.07 28.7707 300.946 17.0652 312.616 11.0687C312.9 12.0886 312.892 12.7396 312.809 13.638Z" fill="#EA4A3C"/>
<path d="M425.153 16.7376C414.966 22.5307 404.405 26.2822 391.621 24.9774C388.079 28.9759 384.629 33.0952 381.45 37.3367C399.392 41.9053 418.414 31.7487 429.022 22.0826C440.245 12.3334 445.999 0.0566406 445.999 0.0566406C445.999 0.0566406 437.587 9.68208 425.153 16.7376Z" fill="#EA4A3C"/>
<path d="M225.085 49.3125L232.626 37.0508H219.263L211.725 49.3125H225.085Z" fill="#EA4A3C"/>
<path d="M391.568 128.495C390.132 129.474 388.113 128.722 388.868 126.479C390.748 120.768 398.222 109.131 398.222 109.131L419.041 72.164H404.78C404.103 73.2787 402.653 75.8387 402.653 75.8387C401.994 74.7384 400.021 72.2917 399.208 71.7633C395.724 69.559 390.613 70.6012 387.086 72.5993C371.755 81.5743 360.569 99.3064 351.747 113.135C351.747 113.135 342.46 128.507 337.305 129.65C333.281 129.976 333.696 124.549 333.87 123.284C335.426 114.146 339.04 105.458 342.681 97.5859C350.086 92.4466 358.537 85.7166 366.217 78.3339C382.884 62.3837 396.935 44.3138 398.988 40.2758C398.988 40.2758 396.765 40.725 394.141 40.8058C381.318 58.7124 355.079 84.7373 347.124 88.6114C350.648 80.1258 373.416 39.6226 392.792 20.248L395.841 17.3102C400.555 12.7009 405.44 7.96955 409.247 7.19428C409.649 7.15359 410.167 7.19428 410.614 8.13397C410.784 11.7227 409.449 14.3746 407.918 17.3927L405.773 21.7985C405.773 21.7985 408.812 21.2272 410.807 20.5729C413.123 16.2105 415.688 11.3142 414.743 5.48266C414.427 3.60606 413.071 2.17868 411.297 1.85208C405.518 0.750752 399.218 5.03232 394.15 8.50071L393.945 8.62221C367.89 29.058 345.889 58.5084 326.654 98.7274C325.26 99.7863 319.873 101.052 318.958 100.44C320.857 96.5247 323.249 91.2617 324.446 85.551C324.653 83.9191 324.845 82.2476 324.845 80.6163C324.845 77.1055 324.004 73.8027 320.862 71.5192C317.179 69.6833 312.627 70.5405 309.557 71.9266C295.808 77.6372 285.531 91.7516 278.116 103.375C274.127 110.76 270.151 118.669 269.05 127.726C268.274 134.822 269.853 139.391 273.883 141.676C278.028 143.796 283.244 141.593 285.293 140.533C299.223 133.191 308.956 118.467 316.628 105.005C316.933 104.965 321.122 104.844 324.29 104.027C324.332 104.027 324.35 104.027 324.42 104.07C324.239 104.679 322.601 109.575 322.601 109.575C317.739 123.85 315.49 133.56 320.083 139.31C326.646 147.428 337.512 139.025 346.351 127.929C344.453 141.226 351.337 143.307 356.584 142.288C362.612 140.657 369.329 134.211 372.446 130.908C371.445 134.782 371.717 141.717 377.2 142.41C380.959 143.106 383.771 141.059 387.026 139.305C398.699 132.941 412.674 111.735 416.302 105.605H411.545C406.387 113.408 399.824 123.639 391.568 128.495ZM286.784 127.075C286.044 125.974 285.798 124.77 285.774 123.468C285.632 115.47 294.227 101.146 300.294 93.3434C300.307 93.3434 300.307 93.3434 300.307 93.3434C302.849 98.9169 308.607 102.5 312.083 104.009C307.766 113.636 292.961 134.254 286.784 127.075ZM314.519 99.7055C314.107 99.9925 306.847 97.5441 305.444 90.8141C304.254 85.0199 308.24 80.4925 312.095 78.2102C313.751 76.9043 316.244 76.4567 318.072 77.1066C319.77 78.2503 320.23 80.2913 320.23 82.4906C320.23 83.8394 320.051 85.225 319.893 86.4891C319.893 86.4891 319.863 86.7349 319.858 86.7755C318.649 91.3018 316.797 95.7483 314.519 99.7055ZM372.749 124.506C372.743 124.506 371.372 125.729 371.372 125.729C369.413 127.482 367.398 129.359 364.965 128.42C364.293 128.176 363.821 127.279 363.707 126.584C363.596 121.566 365.853 116.918 368.042 112.391L368.603 111.207C374.898 100.684 382.216 88.2837 392.962 79.6782C394.773 78.3701 396.739 77.271 398.813 78.1283C399.29 78.5758 399.846 79.3516 399.846 80.1258C399.846 80.3716 399.628 81.0237 399.502 81.2266C396.501 86.0827 393.642 91.1808 390.863 96.0749C385.43 105.743 379.794 115.735 372.749 124.506Z" fill="#EA4A3C"/>
</svg>
