<svg width="522" height="199" viewBox="0 0 522 199" fill="none" xmlns="http://www.w3.org/2000/svg">
<g clip-path="url(#clip0_806_969)">
<path d="M99.3486 198.092C45.067 198.092 0.904785 153.862 0.904785 99.502C0.904785 45.1361 45.067 0.908203 99.3486 0.908203C153.628 0.908203 197.789 45.1379 197.789 99.502C197.789 153.862 153.628 198.092 99.3486 198.092Z" fill="white"/>
<path d="M99.3486 1.81361C153.214 1.81361 196.884 45.5487 196.884 99.5016C196.884 153.454 153.214 197.188 99.3486 197.188C45.4796 197.188 1.80963 153.453 1.80963 99.5016C1.80963 45.5505 45.4796 1.81361 99.3486 1.81361ZM99.3486 0.00195312C44.5675 0.00195312 0 44.6375 0 99.5016C0 154.368 44.5675 198.999 99.3486 198.999C154.128 198.999 198.694 154.362 198.694 99.5016C198.694 44.6375 154.128 0.00195312 99.3486 0.00195312Z" fill="#004883"/>
<path d="M520.172 59.4345C521.267 58.1555 522 56.6971 522 54.8691C522.013 53.0547 521.363 51.298 520.172 49.9306C518.889 48.6479 517.255 47.916 515.422 47.916C513.601 47.916 512.143 48.6497 510.675 49.9306C509.403 51.2114 508.847 52.8564 508.847 54.8691C508.847 56.6971 509.403 58.1555 510.675 59.4345C512.143 60.7153 513.601 61.2625 515.422 61.2625C517.255 61.2625 518.889 60.7153 520.172 59.4345ZM520.543 126.717V67.663H510.677L510.863 126.717H520.543ZM497.709 70.5907L496.069 69.8569C491.685 67.2953 486.386 66.0181 479.998 66.0181C473.056 66.0181 467.396 67.6612 463.196 70.953C461.004 72.5998 459.542 74.243 458.447 76.4405C457.354 78.4496 456.8 80.4606 456.8 82.8356C456.8 86.8593 458.632 90.1493 461.922 93.0733C465.022 95.8179 469.585 98.0119 475.613 99.838C480.724 101.483 484.195 103.13 486.386 104.777C488.216 106.606 489.312 108.615 489.312 111.174C489.312 113.916 487.85 116.11 485.289 117.94C482.731 119.404 479.075 120.317 474.517 120.317C469.582 120.317 464.656 119.036 459.542 116.656L458.263 115.746L454.062 123.422L455.528 124.154C461.187 126.897 467.399 128.174 474.155 128.174C481.46 128.174 487.486 126.712 492.233 123.422C494.607 121.958 496.252 119.951 497.532 117.942C498.804 115.565 499.356 113.001 499.356 110.443V110.255C499.356 105.869 497.532 102.028 494.061 98.9231C491.142 96.3669 486.391 94.1693 480.181 92.3432C475.431 90.691 471.963 89.0478 469.953 87.7688C467.761 86.1202 466.849 84.2958 466.849 82.2849C466.849 79.9062 467.761 78.0819 469.775 76.4369C471.963 74.9712 474.88 74.0564 478.719 74.0564C484.015 74.0564 488.398 74.9712 491.869 77.1652L493.149 78.08L497.709 70.5907ZM438.178 74.9767C431.42 69.1268 423.022 66.0199 413.337 66.0199C403.842 66.0199 395.99 68.9421 389.6 74.6107C382.474 81.0131 378.825 89.7851 378.825 101.304V147.193H388.317V117.576C391.241 120.864 394.898 123.426 399.278 125.257C403.661 127.265 408.407 128.178 413.525 128.178C423.203 128.178 431.42 125.257 438.178 119.034C445.119 113.001 448.583 105.691 448.583 97.0952C448.583 88.3213 445.119 81.0113 438.178 74.9767ZM413.337 74.243C420.463 74.243 426.668 76.4405 431.415 80.8247C436.35 85.2125 438.907 90.6946 438.907 97.2836C438.907 103.494 436.712 108.614 432.331 113.001C427.584 117.572 421.192 119.951 413.523 119.951C405.847 119.951 399.636 117.574 394.708 113.001C390.146 108.434 387.957 103.315 387.957 97.2836C387.957 91.2453 390.148 85.9462 394.708 81.5548C399.461 76.8046 405.671 74.243 413.337 74.243ZM363.664 77.9043C357.278 69.8569 348.145 66.0181 335.906 66.0181C326.775 66.0181 318.918 68.5779 312.164 74.06C304.862 79.7286 301.21 87.4101 301.21 96.9158C301.21 102.217 302.669 107.519 305.772 112.454C308.516 117.206 312.714 121.049 318.377 123.971C324.035 126.716 330.061 127.993 336.636 127.993C342.846 127.993 348.688 126.716 354.354 123.971C360.009 121.049 364.211 117.206 366.951 112.454L368.778 109.346H358.188C355.993 112.454 352.884 115.016 348.874 117.025C344.857 119.034 340.474 119.951 336.272 119.951C330.429 119.951 325.497 118.484 321.113 115.56C316.73 112.453 313.811 108.614 311.983 103.494C318.006 101.117 324.035 99.8362 330.613 99.8362L340.474 100.93L355.812 102.396C360.559 102.396 364.584 101.664 368.23 100.57C369.694 100.019 370.604 99.2873 370.973 98.3724C371.518 97.6423 371.518 96.3669 371.158 94.8976C370.056 88.3213 367.683 82.6563 363.664 77.9043ZM361.113 92.8994L361.294 93.2617L355.995 93.9918L344.491 92.8976L328.42 91.6131H325.68C320.566 91.979 315.82 92.8976 311.252 94.5389C311.98 87.7724 315.271 82.4679 320.751 78.6326C325.313 75.7032 330.43 74.06 335.906 74.06C344.486 74.06 351.064 76.8028 355.995 82.2885C358.554 85.5821 360.376 89.0532 361.113 92.8994ZM258.655 66.0181C249.341 66.0181 241.306 68.9403 234.915 74.6089C227.792 81.0113 224.321 89.7833 224.321 101.3L224.14 147.189H234.003L233.818 117.572C236.741 120.862 240.392 123.422 244.594 125.254C249.158 127.263 253.909 128.172 259.021 128.172C268.7 128.172 276.918 125.254 283.677 119.032C290.615 113 293.901 105.686 293.901 97.0915C293.901 88.3159 290.615 81.0059 283.856 74.9712C276.918 69.125 268.7 66.0181 258.655 66.0181ZM240.029 81.5566C244.96 76.8046 250.988 74.243 258.655 74.243C265.962 74.243 271.989 76.4405 276.914 80.8247C281.851 85.2125 284.22 90.6946 284.22 97.2836C284.22 103.494 282.032 108.614 277.826 113.001C273.083 117.572 266.873 119.951 258.838 119.951C251.35 119.951 244.96 117.574 240.027 113.001C235.644 108.434 233.452 103.315 233.452 97.2836C233.454 91.2471 235.644 85.948 240.029 81.5566Z" fill="black"/>
<path d="M155.121 25.4811C154.283 24.8457 153.487 24.1558 152.74 23.4158C137.119 12.385 118.464 6.47632 99.3484 6.504C48.0689 6.504 6.49814 48.1394 6.49814 99.4998C6.46979 119.514 12.9157 138.999 24.8713 155.04C55.9426 145.855 83.0508 129.874 106.283 106.777C129.486 83.7909 145.791 56.5853 155.121 25.4811Z" fill="#E32934"/>
<path d="M99.3484 192.495C150.624 192.495 192.195 150.854 192.195 99.4978C192.195 81.3178 186.983 64.3662 177.982 50.0451C177.746 49.8089 177.534 49.5498 177.349 49.2715C179.238 55.5131 180.195 62.0002 180.188 68.5221C180.188 79.075 177.752 89.0626 172.968 98.4144C168.236 107.296 161.584 115.008 153.498 120.989C147.009 125.781 139.22 129.843 130.05 133.173C122.752 135.847 113.259 138.611 101.498 141.287L67.5857 148.927C53.1684 152.235 40.0378 155.775 28.3403 159.4C45.3707 179.642 70.8576 192.495 99.3484 192.495Z" fill="#004883"/>
</g>
<defs>
<clipPath id="clip0_806_969">
<rect width="522" height="199" fill="white"/>
</clipPath>
</defs>
</svg>
